<?xml version="1.0" encoding="UTF-8" standalone="no"?>
<!-- Uploaded to: SVG Repo, www.svgrepo.com, Transformed by: SVG Repo Mixer Tools -->

<svg
   fill="#000000"
   width="64px"
   height="64px"
   viewBox="0 0 24 24"
   data-name="Layer 1"
   version="1.1"
   id="svg7"
   sodipodi:docname="comparison.svg"
   inkscape:version="1.2.1 (9c6d41e410, 2022-07-14)"
   xmlns:inkscape="http://www.inkscape.org/namespaces/inkscape"
   xmlns:sodipodi="http://sodipodi.sourceforge.net/DTD/sodipodi-0.dtd"
   xmlns="http://www.w3.org/2000/svg"
   xmlns:svg="http://www.w3.org/2000/svg">
  <defs
     id="defs11" />
  <sodipodi:namedview
     id="namedview9"
     pagecolor="#ffffff"
     bordercolor="#000000"
     borderopacity="0.25"
     inkscape:showpageshadow="2"
     inkscape:pageopacity="0.0"
     inkscape:pagecheckerboard="0"
     inkscape:deskcolor="#d1d1d1"
     showgrid="false"
     inkscape:zoom="13.75"
     inkscape:cx="21.854545"
     inkscape:cy="32"
     inkscape:window-width="2560"
     inkscape:window-height="1369"
     inkscape:window-x="2552"
     inkscape:window-y="0"
     inkscape:window-maximized="1"
     inkscape:current-layer="svg7" />
  <g
     id="SVGRepo_bgCarrier"
     stroke-width="0" />
  <g
     id="SVGRepo_tracerCarrier"
     stroke-linecap="round"
     stroke-linejoin="round" />
  <g
     id="SVGRepo_iconCarrier"
     style="fill:#ffffff;fill-opacity:1;stroke:#000000;stroke-width:0;stroke-dasharray:none;stroke-opacity:0"
     transform="matrix(0.61955631,0,0,0.58818183,4.5635282,4.9418179)">
    <path
       d="M 21,20 H 4 v -0.54 l 5,-5 3.8,3.8 a 1,1 0 0 0 1.41,0 l 7.5,-7.5 a 1,1 0 0 0 0,-1.42 1,1 0 0 0 -1.41,0 l -6.8,6.8 -3.79,-3.8 a 1,1 0 0 0 -1.41,0 L 4,16.63 v -5.17 l 5,-5 2.8,2.8 a 1,1 0 0 0 1.41,0 L 18,4.47 20.19,6.66 A 1.0005623,1.0005623 0 0 0 21.6,5.24 L 18.69,2.35 a 1,1 0 0 0 -1.41,0 l -4.8,4.8 -2.79,-2.8 a 1,1 0 0 0 -1.41,0 L 4,8.63 V 3 A 1,1 0 0 0 2,3 v 18 a 1,1 0 0 0 1,1 h 18 a 1,1 0 0 0 0,-2 z"
       id="path4"
       style="fill:#ffffff;fill-opacity:1;stroke:#000000;stroke-width:0;stroke-dasharray:none;stroke-opacity:0" />
  </g>
</svg>
