<?xml version="1.0" encoding="UTF-8" standalone="no"?>
<!-- Uploaded to: SVG Repo, www.svgrepo.com, Transformed by: SVG Repo Mixer Tools -->

<svg
   width="64px"
   height="64px"
   viewBox="0 0 24 24"
   fill="none"
   stroke="#ffffff"
   version="1.1"
   id="svg7"
   sodipodi:docname="toggle.svg"
   inkscape:version="1.2.1 (9c6d41e410, 2022-07-14)"
   xmlns:inkscape="http://www.inkscape.org/namespaces/inkscape"
   xmlns:sodipodi="http://sodipodi.sourceforge.net/DTD/sodipodi-0.dtd"
   xmlns="http://www.w3.org/2000/svg"
   xmlns:svg="http://www.w3.org/2000/svg">
  <defs
     id="defs11">
    <linearGradient
       id="linearGradient4548"
       inkscape:swatch="solid">
      <stop
         style="stop-color:#000000;stop-opacity:1;"
         offset="0"
         id="stop4546" />
    </linearGradient>
  </defs>
  <sodipodi:namedview
     id="namedview9"
     pagecolor="#ffffff"
     bordercolor="#000000"
     borderopacity="0.25"
     inkscape:showpageshadow="2"
     inkscape:pageopacity="0.0"
     inkscape:pagecheckerboard="0"
     inkscape:deskcolor="#d1d1d1"
     showgrid="false"
     inkscape:zoom="13.75"
     inkscape:cx="1.2"
     inkscape:cy="24.218182"
     inkscape:window-width="2560"
     inkscape:window-height="1369"
     inkscape:window-x="-8"
     inkscape:window-y="-8"
     inkscape:window-maximized="1"
     inkscape:current-layer="svg7" />
  <g
     id="SVGRepo_bgCarrier"
     stroke-width="0" />
  <g
     id="SVGRepo_tracerCarrier"
     stroke-linecap="round"
     stroke-linejoin="round" />
  <g
     id="SVGRepo_iconCarrier"
     style="fill:#ffffff;stroke:#000000;stroke-width:0;stroke-linecap:square;stroke-linejoin:round;stroke-dasharray:none;stroke-opacity:1"
     transform="matrix(0.81594943,0,0,0.71778912,2.2086068,3.3848043)">
    <path
       d="m 14.293,2.293 a 1,1 0 0 1 1.414,0 l 4,4 a 1,1 0 0 1 0,1.414 l -4,4 A 1,1 0 0 1 14.293,10.293 L 16.586,8 H 5 A 1,1 0 0 1 5,6 H 16.586 L 14.293,3.707 a 1,1 0 0 1 0,-1.414 z m -4.586,10 a 1,1 0 0 1 0,1.414 L 7.414,16 H 19 a 1,1 0 1 1 0,2 H 7.414 l 2.293,2.293 a 1,1 0 0 1 -1.414,1.414 l -4,-4 a 1,1 0 0 1 0,-1.414 l 4,-4 a 1,1 0 0 1 1.414,0 z"
       fill="#ffffff"
       id="path4"
       style="fill:#ffffff;stroke:#000000;stroke-width:0;stroke-linecap:square;stroke-linejoin:round;stroke-dasharray:none;stroke-opacity:1" />
  </g>
</svg>
